<svg width="34" height="36" viewBox="0 0 34 36" fill="none" xmlns="http://www.w3.org/2000/svg">
<path opacity="0.8" d="M22.4838 21H11.671C11.3126 21 10.9688 21.158 10.7153 21.4393C10.4618 21.7206 10.3194 22.1022 10.3194 22.5C10.3194 22.8978 10.4618 23.2794 10.7153 23.5607C10.9688 23.842 11.3126 24 11.671 24H22.4838C22.8422 24 23.186 23.842 23.4395 23.5607C23.693 23.2794 23.8354 22.8978 23.8354 22.5C23.8354 22.1022 23.693 21.7206 23.4395 21.4393C23.186 21.158 22.8422 21 22.4838 21ZM22.4838 15H14.3742C14.0158 15 13.672 15.158 13.4185 15.4393C13.165 15.7206 13.0226 16.1022 13.0226 16.5C13.0226 16.8978 13.165 17.2794 13.4185 17.5607C13.672 17.842 14.0158 18 14.3742 18H22.4838C22.8422 18 23.186 17.842 23.4395 17.5607C23.693 17.2794 23.8354 16.8978 23.8354 16.5C23.8354 16.1022 23.693 15.7206 23.4395 15.4393C23.186 15.158 22.8422 15 22.4838 15ZM27.8901 6H23.8354V4.5C23.8354 4.10218 23.693 3.72064 23.4395 3.43934C23.186 3.15804 22.8422 3 22.4838 3C22.1253 3 21.7815 3.15804 21.528 3.43934C21.2746 3.72064 21.1322 4.10218 21.1322 4.5V6H18.429V4.5C18.429 4.10218 18.2866 3.72064 18.0331 3.43934C17.7796 3.15804 17.4359 3 17.0774 3C16.7189 3 16.3752 3.15804 16.1217 3.43934C15.8682 3.72064 15.7258 4.10218 15.7258 4.5V6H13.0226V4.5C13.0226 4.10218 12.8802 3.72064 12.6268 3.43934C12.3733 3.15804 12.0295 3 11.671 3C11.3126 3 10.9688 3.15804 10.7153 3.43934C10.4618 3.72064 10.3194 4.10218 10.3194 4.5V6H6.26468C5.90621 6 5.56243 6.15804 5.30896 6.43934C5.05549 6.72064 4.91309 7.10218 4.91309 7.5V28.5C4.91309 29.6935 5.34028 30.8381 6.1007 31.682C6.86112 32.5259 7.89246 33 8.96786 33H25.1869C26.2623 33 27.2937 32.5259 28.0541 31.682C28.8145 30.8381 29.2417 29.6935 29.2417 28.5V7.5C29.2417 7.10218 29.0993 6.72064 28.8458 6.43934C28.5924 6.15804 28.2486 6 27.8901 6ZM26.5385 28.5C26.5385 28.8978 26.3961 29.2794 26.1427 29.5607C25.8892 29.842 25.5454 30 25.1869 30H8.96786C8.60939 30 8.26561 29.842 8.01214 29.5607C7.75867 29.2794 7.61627 28.8978 7.61627 28.5V9H10.3194V10.5C10.3194 10.8978 10.4618 11.2794 10.7153 11.5607C10.9688 11.842 11.3126 12 11.671 12C12.0295 12 12.3733 11.842 12.6268 11.5607C12.8802 11.2794 13.0226 10.8978 13.0226 10.5V9H15.7258V10.5C15.7258 10.8978 15.8682 11.2794 16.1217 11.5607C16.3752 11.842 16.7189 12 17.0774 12C17.4359 12 17.7796 11.842 18.0331 11.5607C18.2866 11.2794 18.429 10.8978 18.429 10.5V9H21.1322V10.5C21.1322 10.8978 21.2746 11.2794 21.528 11.5607C21.7815 11.842 22.1253 12 22.4838 12C22.8422 12 23.186 11.842 23.4395 11.5607C23.693 11.2794 23.8354 10.8978 23.8354 10.5V9H26.5385V28.5Z" fill="#0CDDD5"/>
</svg>
