<svg width="34" height="36" viewBox="0 0 34 36" fill="none" xmlns="http://www.w3.org/2000/svg">
<path opacity="0.8" d="M29.1994 3.09018C28.2306 2.90498 27.2495 2.80965 26.2665 2.80518C22.9123 2.80213 19.6281 3.86954 16.8053 5.88018C13.9753 3.89594 10.6916 2.85473 7.34419 2.88018C6.3611 2.88465 5.38006 2.97998 4.41124 3.16518C4.09389 3.2259 3.80651 3.41037 3.60084 3.68537C3.39517 3.96037 3.28474 4.30783 3.28942 4.66518V22.6652C3.28652 22.8856 3.32743 23.104 3.40924 23.3048C3.49104 23.5057 3.61173 23.6841 3.76271 23.8273C3.91369 23.9705 4.09126 24.075 4.28278 24.1334C4.4743 24.1918 4.67506 24.2027 4.87078 24.1652C6.80763 23.793 8.79201 23.8548 10.707 24.3468C12.6221 24.8388 14.429 25.7512 16.0214 27.0302L16.1836 27.1352H16.3323C16.4822 27.2045 16.6429 27.2402 16.8053 27.2402C16.9677 27.2402 17.1285 27.2045 17.2784 27.1352H17.4271L17.5892 27.0302C19.1705 25.7226 20.9723 24.7807 22.8877 24.2602C24.8031 23.7397 26.7931 23.6513 28.7399 24.0002C28.9356 24.0377 29.1363 24.0268 29.3279 23.9684C29.5194 23.91 29.6969 23.8055 29.8479 23.6623C29.9989 23.5191 30.1196 23.3407 30.2014 23.1398C30.2832 22.939 30.3241 22.7206 30.3212 22.5002V4.50018C30.3072 4.15841 30.1882 3.83225 29.9842 3.57579C29.7802 3.31933 29.5032 3.14799 29.1994 3.09018ZM15.4537 23.0252C12.9531 21.5652 10.1697 20.8032 7.34419 20.8052C6.89816 20.8052 6.45214 20.8052 5.9926 20.8052V5.80518C6.44275 5.77639 6.89403 5.77639 7.34419 5.80518C10.2277 5.80165 13.0482 6.74072 15.4537 8.50518V23.0252ZM27.618 20.8652C27.1585 20.8652 26.7125 20.8652 26.2665 20.8652C23.4409 20.8632 20.6575 21.6252 18.1569 23.0852V8.50518C20.5625 6.74072 23.383 5.80165 26.2665 5.80518C26.7166 5.77639 27.1679 5.77639 27.618 5.80518V20.8652ZM29.1994 27.0902C28.2306 26.905 27.2495 26.8097 26.2665 26.8052C22.9123 26.8021 19.6281 27.8695 16.8053 29.8802C13.9825 27.8695 10.6983 26.8021 7.34419 26.8052C6.3611 26.8097 5.38006 26.905 4.41124 27.0902C4.2353 27.1212 4.06661 27.1904 3.91488 27.294C3.76315 27.3976 3.63137 27.5335 3.52712 27.6938C3.42286 27.8541 3.34819 28.0357 3.3074 28.2281C3.26661 28.4206 3.26049 28.6201 3.28942 28.8152C3.3581 29.2047 3.5631 29.5481 3.85951 29.7703C4.15591 29.9924 4.51955 30.075 4.87078 30.0002C6.80763 29.628 8.79201 29.6898 10.707 30.1818C12.6221 30.6738 14.429 31.5862 16.0214 32.8652C16.2503 33.0461 16.5243 33.1433 16.8053 33.1433C17.0863 33.1433 17.3603 33.0461 17.5892 32.8652C19.1817 31.5862 20.9886 30.6738 22.9036 30.1818C24.8186 29.6898 26.803 29.628 28.7399 30.0002C29.0911 30.075 29.4547 29.9924 29.7511 29.7703C30.0475 29.5481 30.2525 29.2047 30.3212 28.8152C30.3501 28.6201 30.344 28.4206 30.3032 28.2281C30.2624 28.0357 30.1878 27.8541 30.0835 27.6938C29.9793 27.5335 29.8475 27.3976 29.6958 27.294C29.544 27.1904 29.3753 27.1212 29.1994 27.0902Z" fill="#0CDDD5"/>
</svg>
