<svg width="34" height="36" viewBox="0 0 34 36" fill="none" xmlns="http://www.w3.org/2000/svg">
<path opacity="0.8" d="M29.2417 27.0003H26.5386V22.5003C26.5386 22.1025 26.3962 21.721 26.1427 21.4396C25.8892 21.1583 25.5454 21.0003 25.187 21.0003H18.429V16.9353L19.9563 17.8203C20.179 17.9496 20.4299 18.0074 20.6806 17.9873C20.9313 17.9671 21.1719 17.8697 21.3755 17.7061C21.5791 17.5425 21.7376 17.3191 21.8331 17.061C21.9286 16.803 21.9573 16.5205 21.9161 16.2453L21.3755 12.6903L23.7002 10.1553C23.8763 9.96448 24.0021 9.72392 24.064 9.45958C24.1259 9.19524 24.1217 8.91715 24.0516 8.65531C23.9733 8.38872 23.8292 8.15184 23.6357 7.97154C23.4422 7.79125 23.207 7.67477 22.9568 7.63531L19.7806 7.08031L18.2939 3.84031C18.1832 3.5867 18.0104 3.37282 17.7952 3.22317C17.5801 3.07351 17.3313 2.99414 17.0774 2.99414C16.8235 2.99414 16.5748 3.07351 16.3596 3.22317C16.1445 3.37282 15.9717 3.5867 15.861 3.84031L14.3742 7.08031L11.1439 7.60531C10.8938 7.64476 10.6586 7.76125 10.4651 7.94154C10.2716 8.12184 10.1275 8.35872 10.0492 8.62531C9.97913 8.88715 9.97485 9.16524 10.0368 9.42958C10.0987 9.69392 10.2245 9.93448 10.4006 10.1253L12.7794 12.6903L12.2387 16.2453C12.1975 16.5205 12.2263 16.803 12.3218 17.061C12.4173 17.3191 12.5757 17.5425 12.7793 17.7061C12.9829 17.8697 13.2236 17.9671 13.4743 17.9873C13.725 18.0074 13.9758 17.9496 14.1985 17.8203L15.7258 16.9353V21.0003H8.96789C8.60942 21.0003 8.26564 21.1583 8.01217 21.4396C7.75869 21.721 7.61629 22.1025 7.61629 22.5003V27.0003H4.91311C4.55465 27.0003 4.21087 27.1583 3.9574 27.4396C3.70392 27.7209 3.56152 28.1025 3.56152 28.5003V31.5003C3.56152 31.8981 3.70392 32.2797 3.9574 32.561C4.21087 32.8423 4.55465 33.0003 4.91311 33.0003C5.27158 33.0003 5.61536 32.8423 5.86883 32.561C6.1223 32.2797 6.2647 31.8981 6.2647 31.5003V30.0003H11.6711V31.5003C11.6711 31.8981 11.8135 32.2797 12.0669 32.561C12.3204 32.8423 12.6642 33.0003 13.0227 33.0003C13.3811 33.0003 13.7249 32.8423 13.9784 32.561C14.2318 32.2797 14.3742 31.8981 14.3742 31.5003V28.5003C14.3742 28.1025 14.2318 27.7209 13.9784 27.4396C13.7249 27.1583 13.3811 27.0003 13.0227 27.0003H10.3195V24.0003H23.8354V27.0003H21.1322C20.7737 27.0003 20.43 27.1583 20.1765 27.4396C19.923 27.7209 19.7806 28.1025 19.7806 28.5003V31.5003C19.7806 31.8981 19.923 32.2797 20.1765 32.561C20.43 32.8423 20.7737 33.0003 21.1322 33.0003C21.4907 33.0003 21.8344 32.8423 22.0879 32.561C22.3414 32.2797 22.4838 31.8981 22.4838 31.5003V30.0003H27.8902V31.5003C27.8902 31.8981 28.0325 32.2797 28.286 32.561C28.5395 32.8423 28.8833 33.0003 29.2417 33.0003C29.6002 33.0003 29.944 32.8423 30.1975 32.561C30.4509 32.2797 30.5933 31.8981 30.5933 31.5003V28.5003C30.5933 28.1025 30.4509 27.7209 30.1975 27.4396C29.944 27.1583 29.6002 27.0003 29.2417 27.0003ZM17.0774 12.9453C16.8556 12.9465 16.6374 13.0084 16.4422 13.1253L15.3609 13.7553L15.5636 12.4053C15.5991 12.1665 15.582 11.9217 15.5137 11.6919C15.4455 11.462 15.3281 11.2539 15.1717 11.0853L14.2932 10.1253L15.5096 9.93031C15.7272 9.89804 15.9345 9.80742 16.1134 9.66629C16.2924 9.52515 16.4377 9.33776 16.5368 9.12031L17.0774 7.89031L17.6181 9.12031C17.7171 9.33776 17.8624 9.52515 18.0414 9.66629C18.2204 9.80742 18.4276 9.89804 18.6453 9.93031L19.8617 10.1253L18.9832 11.0853C18.8267 11.2539 18.7094 11.462 18.6411 11.6919C18.5729 11.9217 18.5557 12.1665 18.5912 12.4053L18.7939 13.7553L17.7127 13.1253C17.5174 13.0084 17.2993 12.9465 17.0774 12.9453Z" fill="#0CDDD5"/>
</svg>
